/* XPM */
static char * sb_label_xpm[] = {
"10 15 3 1",
" 	c None",
".	c white",
"+	c blue",
"        ..",
"      ..++",
"     .++++",
"    .+++++",
"   .++++++",
"   .++++++",
"  .+++++++",
"  .+++++++",
" .++++++++",
" .++++++++",
" .++++++++",
" .++++++++",
".+++++++++",
".+++++++++",
".+++++++++"};
